HIERARCHY
ROOT hip
{
  OFFSET 0 0 0
  CHANNELS 6 Xposition Yposition Zposition Zrotation Yrotation Xrotation
  JOINT abdomen
  {
    OFFSET 0 20.6881 -0.73152
    CHANNELS 3 Zrotation Xrotation Yrotation
    JOINT chest
    {
      OFFSET 0 11.7043 -0.48768
      CHANNELS 3 Zrotation Xrotation Yrotation
      JOINT neck
      {
        OFFSET 0 22.1894 -2.19456
        CHANNELS 3 Zrotation Xrotation Yrotation
        JOINT head
        {
          OFFSET -0.24384 7.07133 1.2192
          CHANNELS 3 Zrotation Xrotation Yrotation
          JOINT leftEye
          {
            OFFSET 4.14528 8.04674 8.04672
            CHANNELS 3 Zrotation Xrotation Yrotation
            End Site
            {
              OFFSET 1 0 0
            }
          }
          JOINT rightEye
          {
            OFFSET -3.6576 8.04674 8.04672
            CHANNELS 3 Zrotation Xrotation Yrotation
            End Site
            {
              OFFSET 1 0 0
            }
          }
        }
      }
      JOINT rCollar
      {
        OFFSET -2.68224 19.2634 -4.8768
        CHANNELS 3 Zrotation Xrotation Yrotation
        JOINT rShldr
        {
          OFFSET -8.77824 -1.95073 1.46304
          CHANNELS 3 Zrotation Xrotation Yrotation
          JOINT rForeArm
          {
            OFFSET -28.1742 -1.7115 0.48768
            CHANNELS 3 Zrotation Xrotation Yrotation
            JOINT rHand
            {
              OFFSET -22.5879 0.773209 7.07136
              CHANNELS 3 Zrotation Xrotation Yrotation
              JOINT rThumb1
              {
                OFFSET -1.2192 -0.487915 3.41376
                CHANNELS 3 Zrotation Xrotation Yrotation
                JOINT rThumb2
                {
                  OFFSET -3.37035 -0.52449 3.41376
                  CHANNELS 3 Zrotation Xrotation Yrotation
                  End Site
                  {
                    OFFSET -1.78271 -1.18214 1.43049
                  }
                }
              }
              JOINT rIndex1
              {
                OFFSET -7.75947 0.938293 5.60832
                CHANNELS 3 Zrotation Xrotation Yrotation
                JOINT rIndex2
                {
                  OFFSET -2.54057 -0.884171 1.56538
                  CHANNELS 3 Zrotation Xrotation Yrotation
                  End Site
                  {
                    OFFSET -1.62519 -0.234802 1.16502
                  }
                }
              }
              JOINT rMid1
              {
                OFFSET -8.24714 1.18213 3.41376
                CHANNELS 3 Zrotation Xrotation Yrotation
                JOINT rMid2
                {
                  OFFSET -3.10165 -0.590103 1.0647
                  CHANNELS 3 Zrotation Xrotation Yrotation
                  End Site
                  {
                    OFFSET -2.48547 -0.328903 0.83742
                  }
                }
              }
              JOINT rRing1
              {
                OFFSET -8.82822 0.546677 1.51678
                CHANNELS 3 Zrotation Xrotation Yrotation
                JOINT rRing2
                {
                  OFFSET -2.60934 -0.819778 -0.0198488
                  CHANNELS 3 Zrotation Xrotation Yrotation
                  End Site
                  {
                    OFFSET -2.33842 -0.294052 0.168128
                  }
                }
              }
              JOINT rPinky1
              {
                OFFSET -8.27202 -0.0477905 -0.4584
                CHANNELS 3 Zrotation Xrotation Yrotation
                JOINT rPinky2
                {
                  OFFSET -1.82734 -0.647385 -0.700984
                  CHANNELS 3 Zrotation Xrotation Yrotation
                  End Site
                  {
                    OFFSET -1.69225 -0.51767 -0.607171
                  }
                }
              }
            }
          }
        }
      }
      JOINT lCollar
      {
        OFFSET 2.68224 19.2634 -4.8768
        CHANNELS 3 Zrotation Xrotation Yrotation
        JOINT lShldr
        {
          OFFSET 8.77824 -1.95073 1.46304
          CHANNELS 3 Zrotation Xrotation Yrotation
          JOINT lForeArm
          {
            OFFSET 28.1742 -1.7115 0.48768
            CHANNELS 3 Zrotation Xrotation Yrotation
            JOINT lHand
            {
              OFFSET 22.5879 0.773209 7.07136
              CHANNELS 3 Zrotation Xrotation Yrotation
              JOINT lThumb1
              {
                OFFSET 1.2192 -0.487915 3.41376
                CHANNELS 3 Zrotation Xrotation Yrotation
                JOINT lThumb2
                {
                  OFFSET 3.37035 -0.52449 3.41376
                  CHANNELS 3 Zrotation Xrotation Yrotation
                  End Site
                  {
                    OFFSET 1.78271 -1.18214 1.43049
                  }
                }
              }
              JOINT lIndex1
              {
                OFFSET 7.75947 0.938293 5.60832
                CHANNELS 3 Zrotation Xrotation Yrotation
                JOINT lIndex2
                {
                  OFFSET 2.54057 -0.884171 1.56538
                  CHANNELS 3 Zrotation Xrotation Yrotation
                  End Site
                  {
                    OFFSET 1.62519 -0.234802 1.16502
                  }
                }
              }
              JOINT lMid1
              {
                OFFSET 8.24714 1.18213 3.41376
                CHANNELS 3 Zrotation Xrotation Yrotation
                JOINT lMid2
                {
                  OFFSET 3.10165 -0.590103 1.0647
                  CHANNELS 3 Zrotation Xrotation Yrotation
                  End Site
                  {
                    OFFSET 2.48547 -0.328903 0.83742
                  }
                }
              }
              JOINT lRing1
              {
                OFFSET 8.82822 0.546677 1.51678
                CHANNELS 3 Zrotation Xrotation Yrotation
                JOINT lRing2
                {
                  OFFSET 2.60934 -0.819778 -0.0198488
                  CHANNELS 3 Zrotation Xrotation Yrotation
                  End Site
                  {
                    OFFSET 2.33842 -0.294052 0.168128
                  }
                }
              }
              JOINT lPinky1
              {
                OFFSET 8.27202 -0.0477905 -0.4584
                CHANNELS 3 Zrotation Xrotation Yrotation
                JOINT lPinky2
                {
                  OFFSET 1.82734 -0.647385 -0.700984
                  CHANNELS 3 Zrotation Xrotation Yrotation
                  End Site
                  {
                    OFFSET 1.69225 -0.51767 -0.607171
                  }
                }
              }
            }
          }
        }
      }
    }
  }
  JOINT rButtock
  {
    OFFSET -8.77824 4.35084 1.2192
    CHANNELS 3 Zrotation Xrotation Yrotation
    JOINT rThigh
    {
      OFFSET 0 -1.70687 -2.19456
      CHANNELS 3 Zrotation Xrotation Yrotation
      JOINT rShin
      {
        OFFSET 0 -36.8199 0.73152
        CHANNELS 3 Zrotation Xrotation Yrotation
        JOINT rFoot
        {
          OFFSET 0.73152 -45.1104 -5.12064
          CHANNELS 3 Zrotation Xrotation Yrotation
          End Site
          {
            OFFSET -1.1221 -3.69964 12.103
          }
        }
      }
    }
  }
  JOINT lButtock
  {
    OFFSET 8.77824 4.35084 1.2192
    CHANNELS 3 Zrotation Xrotation Yrotation
    JOINT lThigh
    {
      OFFSET 0 -1.70687 -2.19456
      CHANNELS 3 Zrotation Xrotation Yrotation
      JOINT lShin
      {
        OFFSET 0 -36.8199 0.73152
        CHANNELS 3 Zrotation Xrotation Yrotation
        JOINT lFoot
        {
          OFFSET -0.73152 -45.1104 -5.12064
          CHANNELS 3 Zrotation Xrotation Yrotation
          End Site
          {
            OFFSET 1.1221 -3.69964 12.103
          }
        }
      }
    }
  }
}
MOTION
Frames:	4
Frame Time:	0.03333
-0.002558759617816027 62.148731371213934 0.06844361812540528 -3.206685781478882 -2.2935068607330322 8.065677642822266 -2.38281512260437 14.404099464416504 3.899590492248535 2.748385429382324 -9.614643096923828 1.3018382787704468 -4.948936462402344 14.493792533874512 -3.7275073528289795 8.905147552490234 -22.144832611083984 -5.428399085998535 0.02294093929231167 0.0005521951825357974 0.002992234891280532 0.04062091186642647 -0.011368636973202229 -0.027137668803334236 0.09703164547681808 -0.003209160640835762 -0.016964474692940712 46.31155014038086 39.78635787963867 17.767480850219727 -25.640073776245117 -26.230493545532227 68.44851684570312 -1.53072988986969 -10.136067390441895 -1.544958233833313 -0.0047490340657532215 0.030596649274230003 0.0018817746313288808 -0.024255333468317986 0.029710058122873306 -0.0035565036814659834 -0.060254599899053574 -0.01059784460812807 -0.05096474662423134 7.789562225341797 5.476866245269775 0.4111402928829193 -0.02785543166100979 0.11768914014101028 -0.004510948900133371 2.9613285064697266 0.9953374266624451 0.12981122732162476 -0.08719205111265182 0.026328090578317642 0.006501874886453152 10.302591323852539 0.8050163388252258 0.03865339234471321 -0.03297420218586922 -0.033486008644104004 0.0487121045589447 2.2153372764587402 -0.7174174189567566 -0.16509266197681427 0.05738794058561325 0.0076490906067192554 -0.011110012419521809 -54.46527862548828 40.657066345214844 -26.1735782623291 24.94483184814453 -23.706785202026367 -65.23086547851562 1.9475133419036865 -14.546528816223145 2.112734079360962 -0.031281206756830215 0.01450797077268362 -0.002279439941048622 -0.047814205288887024 0.004567692056298256 0.01377403736114502 -0.014406044036149979 -0.030737493187189102 -0.011540170758962631 -7.688094615936279 5.557113170623779 -0.38476234674453735 0.003189586801454425 -0.049048084765672684 -0.04330158606171608 -2.8521945476531982 1.0294899940490723 -0.11704330146312714 -0.07618845999240875 -0.021632233634591103 0.01345678512006998 -10.317852020263672 0.7309541702270508 -0.0829852819442749 0.0031882748007774353 -0.01642487943172455 -0.041631244122982025 -2.2365927696228027 -0.7536476254463196 0.19974301755428314 -0.019729891791939735 0.06050245091319084 0.03779251128435135 -24.64155387878418 -41.880950927734375 -18.557870864868164 -1.420714020729065 65.08684539794922 2.66432523727417 -4.62357234954834 -11.976581573486328 -9.881462097167969 -0.0029931177850812674 0.05959467589855194 -0.03235507383942604 30.09141731262207 -43.135379791259766 21.143281936645508 1.3646855354309082 66.24081420898438 -2.522167921066284 4.846434593200684 -11.88575553894043 13.040542602539062
-0.01049367852522545 62.12536529406332 0.1243149924229327 -3.413017749786377 -1.3009350299835205 8.873297691345215 -2.285886287689209 14.358956336975098 3.6933393478393555 2.624272346496582 -9.621803283691406 1.1610260009765625 -4.85205078125 14.475305557250977 -3.71272873878479 8.72932243347168 -21.988248825073242 -5.460437297821045 0.06722172349691391 -0.012228874489665031 -0.035246461629867554 0.02204042859375477 0.005416328553110361 -0.08871591836214066 0.02532181516289711 0.02810370735824108 -0.007697094231843948 46.202171325683594 39.337188720703125 18.27251625061035 -25.569866180419922 -26.184202194213867 68.46690368652344 -1.519544005393982 -10.574816703796387 -1.5574102401733398 -0.03169018775224686 0.060721129179000854 0.04504559561610222 -0.11424607783555984 0.08381133526563644 -0.02931097336113453 -0.08009925484657288 -0.000645812600851059 -0.1064889058470726 7.730617523193359 5.533655643463135 0.41294628381729126 0.07424931228160858 0.03261164203286171 0.029063528403639793 2.9482386112213135 0.9843993186950684 0.1697157919406891 -0.1377858817577362 0.012800317257642746 0.04683542996644974 10.309678077697754 0.8113428354263306 0.05278007686138153 0.006335572339594364 -0.0618496797978878 0.10570070147514343 2.247467041015625 -0.7130305171012878 -0.18032719194889069 0.020991336554288864 0.022038523107767105 -0.0745764821767807 -54.493133544921875 40.35258865356445 -26.177383422851562 24.886566162109375 -23.889572143554688 -65.79949188232422 1.9253164529800415 -14.80757999420166 2.180341958999634 -0.06979653984308243 -0.07843086868524551 0.0709928497672081 0.08752666413784027 0.0870213434100151 -0.07473208010196686 -0.09237202256917953 0.023148320615291595 -0.07195420563220978 -7.620340824127197 5.612070560455322 -0.38931792974472046 -0.01031029224395752 -0.1424238532781601 -0.055658768862485886 -2.8237788677215576 1.0114563703536987 -0.10337698459625244 -0.08907634764909744 -0.06870995461940765 0.13829228281974792 -10.269360542297363 0.793144941329956 -0.1299096643924713 0.024607107043266296 0.016246773302555084 -0.04579756408929825 -2.2567341327667236 -0.7079772353172302 0.23359547555446625 0.0035313786938786507 0.15597815811634064 0.07691912353038788 -24.759735107421875 -41.31481170654297 -18.653833389282227 -1.5690637826919556 64.7843246459961 2.5565242767333984 -4.485437870025635 -11.471362113952637 -9.578462600708008 -0.002309579635038972 0.12632746994495392 -0.03997571021318436 30.13096809387207 -42.5553092956543 20.99039077758789 1.3221516609191895 66.2503890991211 -2.3719863891601562 4.958154678344727 -11.239371299743652 12.798254013061523
-0.08942611933824311 69.2090091237969 -0.2079791001443296 -4.0549139976501465 14.236437797546387 -0.3118601441383362 -3.182328701019287 21.611616134643555 1.5700657367706299 6.21942138671875 -10.742927551269531 0.5136305689811707 -7.075497627258301 16.118682861328125 -10.587379455566406 11.250470161437988 -30.04045867919922 -17.155466079711914 0.23340563476085663 -0.07009696960449219 -0.3100740313529968 -0.0626215785741806 0.08857249468564987 -0.5663992166519165 0.8591064810752869 0.286730021238327 0.25577932596206665 40.37184143066406 -0.10103733837604523 52.2295036315918 -20.361066818237305 -13.232999801635742 41.479217529296875 -0.7890740633010864 -3.8944592475891113 -0.8744519352912903 -0.10079632699489594 0.49157068133354187 -0.11353176832199097 0.08767658472061157 -0.3839036822319031 -0.20733760297298431 0.1934373676776886 -0.197539284825325 -0.07929829508066177 7.685040473937988 5.4241228103637695 0.5217770338058472 5.112302096677013e-05 0.7467909455299377 -0.2569495737552643 3.2995400428771973 1.1639389991760254 0.10515429079532623 -0.22910715639591217 0.30178678035736084 -0.8223237991333008 10.551671981811523 0.7468539476394653 0.05907585099339485 -0.1449555605649948 -0.1685248613357544 0.14137201011180878 1.96450674533844 -0.9811168313026428 -0.1127622053027153 0.06418874114751816 -0.03270958364009857 0.44164276123046875 7.5095391273498535 46.05414962768555 -98.2500228881836 28.862957000732422 -37.541297912597656 -78.02489471435547 1.3630139827728271 -32.76358413696289 4.787721633911133 0.007105419412255287 -0.0837155357003212 -0.018523041158914566 -0.21703241765499115 -0.23472662270069122 0.07837357372045517 0.24637554585933685 -0.04649300128221512 0.38739973306655884 -7.856452465057373 5.967247009277344 -0.45280951261520386 -0.03914962708950043 -0.15873689949512482 -0.3159319758415222 -2.97586989402771 1.4072849750518799 0.21571582555770874 -0.262343168258667 -0.04023421183228493 -0.03805113211274147 -9.90860652923584 0.825829803943634 -0.3526056706905365 0.447799950838089 -0.0481523759663105 0.0036565235350281 -1.918257713317871 -0.5588833689689636 0.6834477782249451 -0.19921550154685974 0.1173214241862297 0.18850836157798767 -37.15518569946289 -59.34111404418945 -32.46860122680664 -2.3245060443878174 71.63328552246094 2.944533586502075 -1.8565363883972168 3.652475357055664 -3.421884059906006 -0.13101251423358917 0.0027385891880840063 0.30890390276908875 10.183345794677734 -34.40734100341797 12.339001655578613 3.905085802078247 72.18302154541016 -4.8922319412231445 9.799690246582031 -15.61793041229248 25.315196990966797
-0.43078488679031723 68.06303998485217 -0.9737637415477334 -6.336523532867432 12.623307228088379 -3.6164493560791016 1.5407391786575317 25.008081436157227 1.193360447883606 5.131259918212891 -11.153703689575195 0.2070903182029724 -5.862929821014404 15.091325759887695 -7.051796913146973 7.665329456329346 -29.29656219482422 -11.76594066619873 0.0442756786942482 0.04857208579778671 -0.32727348804473877 -0.005482904613018036 0.01508184615522623 -0.4246402382850647 0.08841157704591751 0.28764474391937256 0.5335043668746948 50.659324645996094 -8.001989364624023 60.927947998046875 -17.56597137451172 -12.179760932922363 31.530935287475586 -1.71907639503479 -20.191484451293945 -2.9473249912261963 -0.1438295841217041 0.36792999505996704 -0.09299715608358383 -0.08896297216415405 -0.10597565025091171 0.08962885290384293 0.4985867440700531 0.18686798214912415 -0.4725768566131592 7.4286274909973145 5.791546821594238 0.5491002798080444 0.1676187813282013 -0.14091195166110992 -0.02510850690305233 3.0782411098480225 0.7868876457214355 0.07288607954978943 -0.11211331188678741 -0.23899920284748077 -0.5302614569664001 10.168163299560547 0.6665962338447571 0.43062612414360046 -0.47068342566490173 -0.30887264013290405 -0.08596824109554291 1.83505380153656 -0.43650022149086 -0.6103350520133972 0.014075205661356449 -0.26937776803970337 0.40368932485580444 21.878427505493164 26.055835723876953 -111.52935791015625 27.68363380432129 -34.6391716003418 -77.46627807617188 0.8735458254814148 -13.602919578552246 1.4144208431243896 -0.13920468091964722 -0.584173858165741 0.08598876744508743 0.341653048992157 0.32741713523864746 -0.054870977997779846 -0.12626105546951294 0.16743405163288116 0.1387675702571869 -8.013822555541992 5.604349136352539 -0.6087333559989929 0.07146095484495163 -0.2547892928123474 -0.27693596482276917 -3.1940577030181885 1.602156400680542 0.7142314910888672 -0.07316904515028 0.18014048039913177 0.5903510451316833 -9.951119422912598 0.5997484922409058 -0.05362863838672638 0.025071214884519577 -0.241805762052536 -0.04537685960531235 -1.5400385856628418 -1.0216459035873413 0.5094239711761475 -0.030333174392580986 0.6534172892570496 -0.04315139725804329 -31.71933937072754 -57.88810729980469 -20.612077713012695 -2.8852202892303467 67.49922943115234 2.7206475734710693 -0.5531073212623596 8.3550386428833 -0.44209790229797363 0.5328999757766724 0.30759286880493164 0.044581517577171326 8.327400207519531 -41.96365737915039 10.89331340789795 4.438138484954834 81.16368103027344 -6.115353584289551 10.827839851379395 -15.858572959899902 23.16339683532715
